<?xml version="1.0" standalone="no"?>
<!DOCTYPE svg PUBLIC "-//W3C//DTD SVG 20010904//EN"
 "http://www.w3.org/TR/2001/REC-SVG-20010904/DTD/svg10.dtd">
<svg version="1.0" xmlns="http://www.w3.org/2000/svg"
 width="512.000000pt" height="512.000000pt" viewBox="0 0 512.000000 512.000000"
 preserveAspectRatio="xMidYMid meet">
<metadata>
Created by potrace 1.14, written by Peter Selinger 2001-2017
</metadata>
<g transform="translate(0.000000,512.000000) scale(0.100000,-0.100000)"
fill="#000000" stroke="none">
<path d="M3428 5115 c-7 -6 -133 -18 -218 -20 -52 -1 -133 -8 -180 -15 -47 -7
-101 -14 -120 -16 -116 -11 -226 -24 -260 -30 -229 -40 -459 -88 -567 -119
-28 -8 -102 -24 -165 -35 -62 -11 -160 -28 -218 -39 -58 -11 -121 -22 -140
-25 -71 -11 -210 -38 -267 -51 -13 -3 -32 -7 -44 -10 -11 -2 -29 -7 -39 -10
-10 -3 -27 -8 -37 -10 -10 -2 -47 -10 -83 -19 -36 -8 -99 -20 -140 -26 -96
-15 -146 -31 -245 -82 -142 -72 -236 -145 -371 -291 -31 -34 -87 -124 -105
-170 -39 -97 -91 -252 -104 -310 -7 -32 -14 -115 -14 -185 -2 -108 1 -134 20
-186 12 -34 30 -72 39 -86 10 -14 27 -51 39 -83 12 -33 37 -89 56 -125 56
-109 66 -149 75 -288 7 -127 16 -160 49 -195 22 -22 160 -112 198 -128 39 -16
48 -36 88 -199 40 -160 124 -368 206 -515 37 -67 60 -118 59 -135 -9 -142 -5
-187 24 -238 15 -29 59 -82 96 -119 75 -73 92 -107 145 -295 43 -152 92 -287
142 -389 74 -155 131 -219 255 -287 46 -26 85 -50 88 -54 13 -19 140 -73 201
-85 57 -12 221 -6 279 10 8 2 31 7 50 10 60 10 187 44 290 79 l100 33 0 -56
c0 -31 -11 -94 -23 -141 -13 -47 -21 -97 -18 -112 7 -34 36 -68 57 -68 78 0
274 196 274 274 0 29 19 26 36 -5 9 -18 20 -37 25 -43 5 -6 20 -25 34 -42 47
-59 114 -53 135 12 13 37 8 170 -8 230 -5 16 -7 35 -6 42 1 6 2 16 3 21 0 5
13 11 29 14 15 3 88 23 162 45 335 99 688 197 1035 287 250 65 373 103 421
130 82 48 140 160 122 238 -16 70 -62 123 -156 178 -36 21 -65 49 -93 90 -22
32 -46 59 -54 59 -45 0 29 216 123 362 33 51 43 60 88 73 89 26 170 100 200
182 23 66 17 117 -21 191 -20 37 -55 108 -79 157 -23 50 -105 198 -181 330
-76 132 -185 332 -243 445 -58 113 -130 255 -161 315 -31 61 -71 132 -89 159
-17 27 -45 81 -61 121 -17 39 -43 98 -59 131 -16 32 -39 84 -51 114 -12 30
-44 93 -70 140 -27 47 -52 96 -56 110 -4 14 -19 50 -32 80 -14 30 -34 80 -45
110 -11 30 -42 101 -69 158 -27 56 -56 126 -65 155 -23 71 -100 233 -116 243
-11 8 -164 15 -170 9z m182 -3405 c-8 -5 -19 -10 -25 -10 -5 0 -3 5 5 10 8 5
20 10 25 10 6 0 3 -5 -5 -10z m-1682 -454 c-7 -8 -21 -23 -30 -35 -10 -11 -25
-21 -35 -21 -11 0 -4 11 23 35 38 33 69 49 42 21z m2317 -106 c-3 -5 -16 -10
-28 -9 -20 1 -20 2 3 9 14 4 26 8 28 9 2 1 0 -3 -3 -9z m-56 -14 c-4 -4 -178
-66 -186 -66 -1 0 -3 4 -3 9 0 10 83 40 133 48 18 3 34 7 36 9 2 2 9 4 14 4 6
0 8 -2 6 -4z m-622 -212 c-3 -3 -12 -4 -19 -1 -8 3 -5 6 6 6 11 1 17 -2 13 -5z
m-102 -24 c-87 -24 -104 -24 -45 -1 25 9 61 18 80 18 25 1 15 -4 -35 -17z
m-115 -30 c-14 -4 -36 -8 -50 -8 -22 0 -22 1 5 8 17 4 39 8 50 8 16 0 15 -2
-5 -8z m-1100 -252 c0 -5 -10 -9 -22 -10 -13 0 -35 -2 -50 -3 -20 -1 -25 1
-19 9 10 12 91 15 91 4z"/>
</g>
</svg>
